# xmcd
#
# Track frame offsets:
#	150
#	7025
#	16882
#	29673
#	41149
#	50874
#	58410
#	71691
#	78761
#	85211
#	90705
#	103345
#	106693
#	114493
#	117574
#	124594
#	132431
#	143421
#	156075
#	165053
#	176141
#	181772
#
# Disc length: 2541 seconds
#
# Revision: 2
# Processed by: cddbd v1.5.2PL0 Copyright (c) Steve Scherf et al.
# Submitted via: audiograbber 1.83.01
#
DISCID=2a09eb16
DTITLE=Татьяна и Сергей Никитины - Девочка и пластилин
DYEAR=1900
DGENRE=Барды
TTITLE0=Поле чудес (ст. и муз. Б.Окуджава)
TTITLE1=Какое небо голубое (ст. и муз. Б.Окуджава)
TTITLE2=Песенка тортиллы (ст. и муз. Б.Окуджава)
TTITLE3=Песенка дуремара (ст. и муз. Б.Окуджава)
TTITLE4=Песня карабаса и кукол (ст. Б.Окуджава, муз. С.Никитин)
TTITLE5=Песня протеста (ст. и, муз. Б.Окуджава)
TTITLE6=Песенка мальвины (ст. и муз. Б.Окуджава)
TTITLE7=Баллада о коровах (ст. Тим Собакин, муз. С.Никитин)
TTITLE8=Самая первая песня (ст. Валентин Берестов, муз. С.Никитин)
TTITLE9=Хвосты (ст. Алан Милн в пер. С.Маршака, муз. С.Никитин)
TTITLE10=Бульдог и таксик (ст. Даниил Харм, муз. С.Никитин и В.Берковский)
TTITLE11=Бычок (ст. Агния Барто, муз. С.Никитин)
TTITLE12=Девочка и пластилин (ст. Новелла Матвеева, муз. С.Никитин)
TTITLE13=Карась и щука (ст. Вадим Левин, муз. С.Никитин)
TTITLE14=Я - петух (ст. Дмитрий Сухарев, муз. С.Никитин)
TTITLE15=Крошка вилли-винки (шотл. нар песня в пер. Иины Токмаковой0 
TTITLE16=Непослушная мама (ст. Алан Милн в пер. С.Маршака, муз. С.Никитин)
TTITLE17=Зеленая история (ст. Вадим Левин, муз. С.Никитин и В.Берковский)
TTITLE18=Джон Фулл (ст. Вадим Левин, муз. С.Никитин и В.Берковский)
TTITLE19=Капитан Беринг (ст. и муз. Ю.Ким)
TTITLE20=Навострите ваши уши (ст. и муз. Ю.Ким)
TTITLE21=Кончайте ваши прения (ст. и муз. Ю.Ким)
EXTD=
EXTT0=
EXTT1=
EXTT2=
EXTT3=
EXTT4=
EXTT5=
EXTT6=
EXTT7=
EXTT8=
EXTT9=
EXTT10=
EXTT11=
EXTT12=
EXTT13=
EXTT14=
EXTT15=
EXTT16=
EXTT17=
EXTT18=
EXTT19=
EXTT20=
EXTT21=
PLAYORDER=
